<svg width="120" height="27" viewBox="0 0 120 27" fill="none" xmlns="http://www.w3.org/2000/svg">
<g id="Group">
<path id="Vector" d="M46.9599 0.0155115C49.9125 0.0155115 52.8709 0.0155115 55.8234 0.0155115C56.601 0.0155115 57.1681 0.436468 57.3552 1.1556C57.3903 1.27838 57.4079 1.41285 57.4079 1.54148C57.4079 2.31908 57.4254 3.09668 57.3845 3.87428C57.3377 4.67527 56.718 5.2307 55.917 5.26578C55.8176 5.27163 55.7123 5.26578 55.6129 5.26578C49.7897 5.26578 43.9665 5.26578 38.1432 5.26578C37.4943 5.26578 36.9856 5.50549 36.705 6.10185C36.6056 6.31817 36.5588 6.56958 36.5471 6.80929C36.5296 7.49334 36.5354 8.1774 36.5413 8.86145C36.5471 9.81446 37.161 10.4284 38.1198 10.4284C43.9957 10.4284 49.8657 10.4284 55.7416 10.4284C56.4081 10.4284 56.9284 10.6739 57.2325 11.2703C57.3377 11.4807 57.3962 11.738 57.402 11.9719C57.4137 12.7553 57.4196 13.5446 57.3845 14.328C57.3494 15.0589 56.7063 15.6552 55.9754 15.6845C55.8468 15.6903 55.7182 15.6903 55.5837 15.6903C49.7722 15.6903 43.9665 15.6903 38.1549 15.6903C37.5001 15.6903 36.9798 15.93 36.6991 16.5381C36.5997 16.7544 36.553 17.0058 36.5471 17.2455C36.5296 17.9237 36.553 18.6019 36.5354 19.2801C36.5179 20.2098 37.2195 20.8704 38.1198 20.8646C42.9433 20.8529 47.7609 20.8587 52.5844 20.8587C53.6426 20.8587 54.7009 20.8587 55.765 20.8587C56.4198 20.8587 56.9518 21.1101 57.2383 21.724C57.3377 21.9345 57.3962 22.1801 57.3962 22.4081C57.4079 23.1915 57.4079 23.9808 57.3786 24.7643C57.3494 25.4717 56.7297 26.0564 56.0281 26.109C55.9462 26.1148 55.8702 26.1148 55.7883 26.1148C49.8949 26.1148 43.9957 26.1148 38.1023 26.1148C37.4533 26.1148 36.9447 25.8634 36.664 25.2729C36.5471 25.0215 36.512 24.7233 36.4945 24.4369C36.4653 23.9867 36.4769 23.5306 36.4828 23.0746C36.4945 22.4432 35.9741 21.6656 35.0153 21.6539C34.3254 21.6422 33.6296 21.6539 32.9397 21.6539C31.9166 21.6539 31.2793 21.0224 31.2793 19.9934C31.2793 15.3687 31.2793 10.7382 31.2793 6.11354C31.2793 5.29501 31.6944 4.7162 32.4194 4.52911C32.5889 4.48233 32.776 4.47064 32.9514 4.46479C33.653 4.45895 34.3488 4.47064 35.0504 4.45895C35.7227 4.44725 36.2723 4.0146 36.4419 3.37147C36.4828 3.20777 36.4828 3.03237 36.4828 2.85697C36.4945 2.35416 36.4828 1.8455 36.512 1.3427C36.5588 0.635254 37.1844 0.0330513 37.8977 0.00966483C38.3069 -0.00787505 38.722 0.0038182 39.1313 0.0038182C41.7389 0.0155115 44.3465 0.0155115 46.9599 0.0155115Z" fill="#286FEE"/>
<path id="Vector_2" d="M0.00588448 15.4397C0.00588448 12.3643 0.00588448 9.28317 0.00588448 6.20785C0.00588448 5.45363 0.444381 4.88651 1.16352 4.71111C1.35061 4.66434 1.54939 4.65849 1.74233 4.65849C2.44977 4.65264 3.15722 4.67018 3.85881 4.64095C4.59549 4.61172 5.18015 3.99198 5.19769 3.24945C5.20938 2.74664 5.19769 2.23799 5.20353 1.73518C5.20938 0.735406 5.84082 0.098124 6.84059 0.098124C9.23771 0.098124 11.6407 0.098124 14.0378 0.098124C15.0609 0.098124 15.6924 0.735406 15.6924 1.75857C15.6924 6.18446 15.6924 10.6104 15.6924 15.0362C15.6924 16.5037 15.6865 17.9771 15.6924 19.4446C15.6924 20.1754 16.1133 20.725 16.8032 20.9121C16.9143 20.9413 17.0313 20.953 17.1423 20.953C17.8907 20.9589 18.6449 20.9764 19.3933 20.953C20.2703 20.9238 20.8257 20.3274 20.8549 19.4329C20.8549 19.3452 20.8549 19.2575 20.8549 19.1757C20.8549 13.3583 20.8549 7.54088 20.8491 1.72933C20.8491 1.05697 21.1122 0.548314 21.7202 0.267676C21.9424 0.162437 22.2055 0.12151 22.4511 0.109817C23.1234 0.0864307 23.79 0.103971 24.4623 0.103971C25.4855 0.103971 26.1228 0.735406 26.1228 1.75857C26.1228 7.46487 26.1228 13.177 26.1228 18.8833C26.1228 19.316 26.1286 19.7486 26.1228 20.1813C26.1111 21.105 25.4738 21.7423 24.5559 21.7482C23.866 21.754 23.1702 21.7482 22.4803 21.7482C21.539 21.7482 20.9076 22.3738 20.8959 23.3209C20.89 23.8062 20.8959 24.2856 20.89 24.7709C20.8783 25.5192 20.2878 26.1507 19.5453 26.2091C19.3465 26.2267 19.1419 26.2325 18.9431 26.2325C16.6863 26.2325 14.4295 26.2325 12.1727 26.2325C11.7751 26.2325 11.3951 26.1858 11.0619 25.946C10.6292 25.6303 10.4304 25.2035 10.4304 24.6656C10.4363 21.298 10.4304 17.9362 10.4304 14.5685C10.4304 12.0486 10.4304 9.52288 10.4304 7.00299C10.4304 6.21954 10.0387 5.64072 9.37802 5.44194C9.21432 5.39516 9.03892 5.37178 8.86937 5.37178C8.2087 5.36593 7.54218 5.38932 6.88152 5.36593C5.95775 5.33085 5.23861 6.02075 5.25615 6.98545C5.27954 8.33017 5.262 9.68074 5.262 11.0313C5.262 15.5215 5.262 20.0117 5.262 24.5019C5.262 24.9053 5.20938 25.2912 4.95798 25.6245C4.64226 26.0454 4.20961 26.2325 3.7068 26.2384C2.94089 26.2442 2.18083 26.2384 1.41492 26.2208C0.666553 26.1916 -0.00580878 25.5192 3.78498e-05 24.6715C0.0175777 21.5962 0.00588448 18.515 0.00588448 15.4397Z" fill="#286FEE"/>
<path id="Vector_3" d="M62.5647 15.2822C62.5647 12.2536 62.5647 9.22505 62.5647 6.20235C62.5647 5.80478 62.6232 5.43059 62.8687 5.09733C63.202 4.64714 63.6639 4.47759 64.2018 4.47175C64.8741 4.4659 65.5406 4.47175 66.213 4.47175C67.166 4.4659 67.774 3.85785 67.7799 2.90485C67.7799 2.46635 67.774 2.02786 67.7799 1.58351C67.7916 0.642207 68.4172 0.0166178 69.3643 0.0166178C73.5213 0.0166178 77.6841 0.0283111 81.841 0.00492459C82.7063 -0.000922029 83.4956 0.607127 83.4898 1.63613C83.4839 2.1331 83.4839 2.63006 83.5015 3.12702C83.5248 3.83446 84.1329 4.44251 84.8403 4.46005C85.5595 4.47759 86.2845 4.4659 87.0036 4.47175C87.1907 4.47175 87.3778 4.48929 87.559 4.53606C88.2255 4.71146 88.6757 5.25519 88.6874 5.9451C88.705 7.02672 88.7108 8.10835 88.6874 9.18997C88.6699 10.0436 88.0151 10.6516 87.1381 10.6633C86.4014 10.675 85.6647 10.6575 84.9339 10.6692C84.2615 10.6809 83.7178 11.1018 83.5365 11.7508C83.4898 11.9203 83.4956 12.1074 83.4898 12.2887C83.4781 12.9727 83.4898 13.6568 83.4547 14.3408C83.4196 15.0424 82.7765 15.6446 82.0749 15.6856C81.9697 15.6914 81.8586 15.6914 81.7533 15.6914C79.5024 15.6914 77.2573 15.6914 75.0063 15.6914C74.3573 15.6914 73.8545 15.9428 73.5739 16.5392C73.4745 16.7497 73.4336 16.9952 73.4277 17.2291C73.4102 17.9307 73.416 18.6264 73.4219 19.328C73.4277 20.2459 74.0416 20.854 74.9537 20.8657C75.0414 20.8657 75.1291 20.8657 75.211 20.8657C79.1223 20.8657 83.0396 20.8657 86.951 20.8657C87.1498 20.8657 87.3544 20.8832 87.5473 20.93C88.2138 21.0995 88.6582 21.6433 88.6757 22.339C88.6933 23.1108 88.6991 23.8825 88.6757 24.6543C88.6523 25.4962 88.0092 26.1159 87.1615 26.1159C82.946 26.1218 78.7306 26.1218 74.5094 26.1159C73.6324 26.1159 73.0009 25.4787 72.9892 24.6017C72.9834 24.0229 72.9892 23.4499 72.9834 22.8711C72.9775 22.1052 72.5741 21.538 71.9076 21.351C71.7439 21.3042 71.5685 21.2808 71.3989 21.2808C70.7266 21.2749 70.0601 21.2749 69.3877 21.2808C68.6277 21.2866 68.0664 21.6901 67.8676 22.3916C67.8267 22.532 67.8267 22.6898 67.8267 22.8418C67.8208 23.3914 67.8267 23.9352 67.8267 24.4847C67.8208 25.5079 67.1952 26.1276 66.1779 26.1276C65.5289 26.1276 64.88 26.1043 64.231 26.1335C63.2838 26.1803 62.5238 25.5196 62.5413 24.438C62.5589 23.2043 62.5472 21.9707 62.5472 20.7429C62.5647 18.9129 62.5647 17.1005 62.5647 15.2822ZM75.6319 5.27273C73.5447 5.27273 71.4516 5.27273 69.3643 5.27273C68.3938 5.27273 67.8384 6.03864 67.8442 6.75778C67.8559 9.11397 67.8442 11.4702 67.8501 13.8263C67.8501 14.6449 68.4639 15.2646 69.2825 15.2763C70.0367 15.2938 70.7968 15.288 71.551 15.2763C72.311 15.2646 72.9132 14.7267 72.9717 13.9725C73.0185 13.3411 72.9951 12.7038 73.0126 12.0724C73.0185 11.9203 73.0126 11.7683 73.0477 11.6222C73.2173 10.8855 73.8136 10.4353 74.6146 10.4353C77.0117 10.4353 79.4147 10.4353 81.8118 10.4353C82.835 10.4353 83.4313 9.8331 83.4313 8.80409C83.4313 8.16097 83.4313 7.52368 83.4313 6.88056C83.4313 5.87494 82.8233 5.27273 81.8118 5.26689C79.7538 5.27273 77.6958 5.27273 75.6319 5.27273Z" fill="#286FEE"/>
<path id="Vector_4" d="M93.8613 13.0662C93.8613 10.7451 93.8613 8.42402 93.8613 6.10291C93.8613 5.44224 94.1244 4.92189 94.7383 4.63541C94.9722 4.53017 95.2528 4.48924 95.5101 4.47755C96.1707 4.45416 96.8373 4.44832 97.4979 4.47755C98.2755 4.50678 99.0824 3.96889 99.0882 2.89312C99.0882 2.41954 99.0824 1.94012 99.0882 1.46654C99.0999 0.694785 99.7255 0.0516558 100.491 0.0165761C100.556 0.0107294 100.62 0.0107294 100.684 0.0107294C104.841 0.0107294 108.998 0.0107294 113.161 0.00488281C113.816 0.00488281 114.313 0.262134 114.599 0.846797C114.705 1.06312 114.751 1.32622 114.769 1.57178C114.792 2.04535 114.775 2.52478 114.781 2.99835C114.792 3.82273 115.4 4.44832 116.225 4.46586C116.938 4.47755 117.651 4.46586 118.365 4.4717C119.008 4.47755 119.54 4.71726 119.82 5.33116C119.931 5.57087 119.984 5.85735 119.99 6.12045C120.002 10.7451 120.002 15.3757 119.996 20.0003C119.996 21.0293 119.353 21.6549 118.329 21.6549C117.657 21.6549 116.991 21.6549 116.318 21.6549C115.4 21.6608 114.786 22.2747 114.781 23.1867C114.781 23.6428 114.786 24.093 114.781 24.549C114.769 25.4786 114.137 26.1101 113.208 26.1101C109.022 26.1101 104.835 26.1042 100.649 26.1159C99.743 26.1159 99.0473 25.3851 99.0882 24.549C99.1116 24.0228 99.1058 23.4966 99.059 22.9763C98.9888 22.1987 98.3808 21.6666 97.6032 21.6608C96.9133 21.6549 96.2175 21.6608 95.5276 21.6608C94.5045 21.6608 93.8672 21.0235 93.8672 20.0062C93.8613 17.6909 93.8613 15.3757 93.8613 13.0662ZM114.722 13.0604C114.722 11.0082 114.705 8.95022 114.728 6.89805C114.74 5.92167 114.061 5.261 113.103 5.26684C108.975 5.28438 104.841 5.27269 100.714 5.27269C99.7547 5.27269 99.135 5.87489 99.135 6.83374C99.1291 10.9907 99.1291 15.1535 99.1408 19.3104C99.1408 19.556 99.1935 19.8191 99.2928 20.0413C99.5735 20.6259 100.07 20.8715 100.714 20.8715C104.859 20.8715 109.004 20.8715 113.143 20.8715C113.225 20.8715 113.307 20.8773 113.383 20.8656C113.559 20.8247 113.74 20.8013 113.898 20.7195C114.488 20.4213 114.728 19.9243 114.728 19.2754C114.716 17.194 114.722 15.1301 114.722 13.0604Z" fill="#286FEE"/>
</g>
</svg>
