<?xml version="1.0" standalone="no"?>
<!DOCTYPE svg PUBLIC "-//W3C//DTD SVG 20010904//EN"
 "http://www.w3.org/TR/2001/REC-SVG-20010904/DTD/svg10.dtd">
<svg version="1.0" xmlns="http://www.w3.org/2000/svg"
 width="288.000000pt" height="106.000000pt" viewBox="0 0 288.000000 106.000000"
 preserveAspectRatio="xMidYMid meet">

<g transform="translate(0.000000,106.000000) scale(0.100000,-0.100000)"
fill="#000000" stroke="none">
<path d="M0 530 l0 -530 1440 0 1440 0 0 530 0 530 -1440 0 -1440 0 0 -530z
m728 275 l52 -36 0 -105 c0 -81 -3 -104 -12 -98 -69 40 -97 66 -100 94 l-3 30
-47 -31 -48 -31 0 -139 0 -139 50 32 49 33 3 73 3 72 53 -35 52 -36 0 -69 c0
-39 -3 -70 -6 -70 -3 0 -25 14 -49 30 -24 17 -46 30 -49 30 -3 0 -6 -33 -6
-72 l0 -73 -51 -33 -51 -33 -54 35 -54 36 0 216 0 216 28 -17 c15 -10 36 -24
47 -32 32 -21 35 -16 35 51 l0 64 48 36 c26 19 49 36 52 36 3 0 29 -16 58 -35z
m392 -285 l0 -140 86 0 c83 0 85 -1 82 -22 -3 -22 -7 -23 -115 -26 l-113 -3 0
159 c0 87 3 162 7 165 3 4 17 7 30 7 l23 0 0 -140z m377 45 c29 -19 53 -71 53
-115 0 -73 -53 -120 -134 -120 -36 0 -52 6 -78 29 -27 24 -32 36 -36 88 -5 66
5 81 37 61 14 -9 20 -23 19 -51 0 -47 27 -79 68 -79 62 0 89 101 38 141 -15
12 -38 21 -53 21 -14 0 -34 7 -44 14 -17 13 -16 15 10 25 35 13 87 7 120 -14z
m418 -5 c23 -21 49 -96 39 -112 -3 -4 -45 -8 -94 -8 l-90 0 12 -25 c6 -13 25
-29 42 -35 26 -9 35 -7 58 10 31 23 68 26 68 6 0 -8 -14 -26 -31 -40 -45 -38
-117 -37 -160 2 -26 23 -33 38 -37 80 -6 71 11 110 62 134 49 22 99 18 131
-12z m258 2 c19 -20 22 -35 25 -127 l4 -105 -31 0 -31 0 0 95 c0 104 -6 115
-69 115 l-31 0 0 -105 0 -105 -30 0 -30 0 0 120 c0 109 7 139 25 110 11 -17
25 -11 25 11 0 20 4 21 60 17 45 -3 66 -10 83 -26z m464 3 c28 -19 53 -71 53
-111 0 -40 -30 -93 -61 -109 -15 -8 -49 -15 -75 -15 -39 0 -51 5 -80 34 -34
34 -40 56 -35 121 4 45 19 65 64 86 47 22 94 20 134 -6z m-917 -10 c0 -23 -4
-25 -45 -25 l-45 0 0 -100 0 -100 -30 0 -30 0 0 103 c0 134 8 147 91 147 56 0
59 -1 59 -25z m700 -1 c0 -18 -21 -49 -66 -100 l-66 -74 66 0 c64 0 66 -1 66
-25 l0 -26 -97 3 c-93 3 -98 4 -101 26 -3 16 15 42 62 95 l65 72 -64 3 c-62 3
-65 4 -65 27 0 25 0 25 100 25 l100 0 0 -26z"/>
<path d="M1802 524 c-40 -27 -28 -44 31 -44 30 0 57 3 60 7 10 9 -33 53 -53
53 -8 0 -26 -7 -38 -16z"/>
<path d="M2520 520 c-43 -43 -34 -110 19 -136 32 -16 59 -6 76 27 22 41 18 77
-10 104 -29 30 -58 32 -85 5z"/>
</g>
</svg>
