<?xml version="1.0" standalone="no"?>
<!DOCTYPE svg PUBLIC "-//W3C//DTD SVG 20010904//EN"
 "http://www.w3.org/TR/2001/REC-SVG-20010904/DTD/svg10.dtd">
<svg version="1.0" xmlns="http://www.w3.org/2000/svg"
 width="74.000000pt" height="84.000000pt" viewBox="0 0 74.000000 84.000000"
 preserveAspectRatio="xMidYMid meet">

<g transform="translate(0.000000,84.000000) scale(0.100000,-0.100000)"
fill="#000000" stroke="none">
<path d="M0 420 l0 -420 370 0 370 0 0 420 0 420 -370 0 -370 0 0 -420z m488
305 l52 -36 0 -105 c0 -81 -3 -104 -12 -98 -69 40 -97 66 -100 94 l-3 30 -47
-31 -48 -31 0 -139 0 -139 50 32 49 33 3 73 3 72 53 -35 52 -36 0 -69 c0 -39
-3 -70 -6 -70 -3 0 -25 14 -49 30 -24 17 -46 30 -49 30 -3 0 -6 -33 -6 -72 l0
-73 -51 -33 -51 -33 -54 35 -54 36 0 216 0 216 28 -17 c15 -10 36 -24 47 -32
32 -21 35 -16 35 51 l0 64 48 36 c26 19 49 36 52 36 3 0 29 -16 58 -35z"/>
</g>
</svg>
