<svg width="735" height="735" viewBox="0 0 735 735" fill="none" xmlns="http://www.w3.org/2000/svg">
<g clip-path="url(#clip0_2387_280)">
<path d="M367.42 734.84C570.34 734.84 734.84 570.34 734.84 367.42C734.84 164.5 570.34 0 367.42 0C164.5 0 0 164.5 0 367.42C0 570.34 164.5 734.84 367.42 734.84Z" fill="#286FEE"/>
<path d="M182.083 399.136C182.083 355.609 182.083 312.002 182.083 268.477C182.083 257.803 188.294 249.777 198.478 247.294C201.128 246.632 203.943 246.549 206.676 246.549C216.695 246.467 226.714 246.715 236.65 246.301C247.084 245.887 255.364 237.116 255.612 226.607C255.778 219.491 255.612 212.292 255.695 205.176C255.778 191.026 264.72 182.007 278.88 182.007C312.829 182.007 346.861 182.007 380.81 182.007C395.3 182.007 404.243 191.026 404.243 205.507C404.243 268.146 404.243 330.787 404.243 393.425C404.243 414.194 404.16 435.047 404.243 455.817C404.243 466.16 410.204 473.938 419.975 476.586C421.548 477 423.205 477.165 424.777 477.165C435.377 477.249 446.058 477.496 456.657 477.165C469.078 476.752 476.943 468.311 477.357 455.651C477.357 454.41 477.357 453.169 477.357 452.011C477.357 369.678 477.357 287.344 477.275 205.093C477.275 195.577 481.001 188.378 489.612 184.406C492.759 182.917 496.485 182.338 499.963 182.172C509.485 181.841 518.925 182.089 528.447 182.089C542.938 182.089 551.964 191.026 551.964 205.507C551.964 286.268 551.964 367.112 551.964 447.873C551.964 453.997 552.046 460.119 551.964 466.243C551.798 479.316 542.772 488.336 529.772 488.42C520.002 488.502 510.147 488.42 500.377 488.42C487.046 488.42 478.103 497.274 477.938 510.678C477.854 517.546 477.938 524.331 477.854 531.2C477.688 541.79 469.325 550.728 458.81 551.555C455.994 551.804 453.097 551.886 450.281 551.886C418.319 551.886 386.357 551.886 354.396 551.886C348.765 551.886 343.383 551.225 338.664 547.831C332.536 543.363 329.72 537.322 329.72 529.709C329.804 482.048 329.72 434.468 329.72 386.805C329.72 351.141 329.72 315.395 329.72 279.731C329.72 268.643 324.173 260.451 314.816 257.638C312.498 256.975 310.013 256.645 307.612 256.645C298.256 256.562 288.816 256.893 279.459 256.562C266.376 256.065 256.192 265.829 256.44 279.483C256.771 298.515 256.523 317.629 256.523 336.744C256.523 400.293 256.523 463.843 256.523 527.393C256.523 533.102 255.778 538.564 252.217 543.281C247.746 549.238 241.618 551.886 234.497 551.969C223.65 552.051 212.886 551.969 202.039 551.72C191.44 551.307 181.918 541.79 182.001 529.793C182.249 486.268 182.083 442.66 182.083 399.136Z" fill="white"/>
</g>
<defs>
<clipPath id="clip0_2387_280">
<rect width="734.84" height="734.84" fill="white"/>
</clipPath>
</defs>
</svg>
